<svg width="33" height="40" viewBox="0 0 33 40" fill="none" xmlns="http://www.w3.org/2000/svg">
<g id="Layer_1" clip-path="url(#clip0_46_37)">
<path id="Vector" d="M32.2643 15.0377C32.265 12.2862 31.4497 9.59628 29.9216 7.30815C28.3935 5.02002 26.2211 3.23645 23.6793 2.18301C21.1374 1.12957 18.3403 0.853573 15.6416 1.38993C12.9429 1.92628 10.4638 3.25089 8.51798 5.19624C6.57213 7.14159 5.24688 9.62029 4.70983 12.3189C4.17278 15.0174 4.44805 17.8147 5.50084 20.3568C6.55362 22.8989 8.33663 25.0717 10.6244 26.6004C12.9121 28.1291 15.6018 28.9451 18.3533 28.9451C22.0392 28.9356 25.5715 27.4675 28.1781 24.8615C30.7848 22.2555 32.2539 18.7236 32.2643 15.0377ZM30.8291 15.0377C30.8297 15.6658 30.7829 16.2931 30.6891 16.9142C28.7825 18.2541 26.6718 19.2767 24.4387 19.9426C24.5819 19.3377 24.6849 18.724 24.7472 18.1055C24.957 15.3748 24.5511 12.6319 23.5596 10.0789C25.334 9.61128 27.0275 8.87821 28.5829 7.90455C30.0413 9.99767 30.8251 12.4866 30.8291 15.0377ZM24.0332 18.0337C23.9628 18.7498 23.8344 19.459 23.6493 20.1543C20.1586 20.9809 16.5006 20.7473 13.1434 19.4833L12.8814 19.3757C12.7929 18.9331 12.7248 18.4846 12.6769 18.0301C12.3935 15.1597 13.0573 12.3107 14.0296 9.84571C15.7364 10.3513 17.5061 10.6135 19.2862 10.6243C20.4784 10.6301 21.6679 10.5098 22.8348 10.2655C23.7211 12.6229 24.2987 15.3068 24.0332 18.0337ZM28.0052 7.12235L28.1667 7.32687C26.6607 8.26166 25.0213 8.96216 23.3048 9.40437C22.3125 6.98215 21.0099 4.69899 19.4297 2.61212C21.0881 2.75203 22.7016 3.22329 24.1746 3.998C25.6476 4.77272 26.9502 5.83514 28.0052 7.12235ZM18.3533 2.56189H18.4789C20.1486 4.70498 21.5242 7.06171 22.5693 9.56943C19.8273 10.1067 16.9962 9.97377 14.3167 9.18191C15.3393 6.82117 16.6544 4.59828 18.2313 2.56548L18.3533 2.56189ZM17.2769 2.61212C15.7983 4.57624 14.5611 6.71091 13.5919 8.97022C11.9741 8.44619 10.4277 7.72303 8.98837 6.81736C11.1043 4.39568 14.0765 2.88836 17.2804 2.61212H17.2769ZM5.88109 15.0377C5.88422 12.2536 6.81609 9.55022 8.5291 7.35558C10.0242 8.31248 11.6335 9.07794 13.3192 9.63401C12.3325 12.1672 11.6687 15.0915 11.9629 18.1055C11.9952 18.432 12.0418 18.7513 12.0957 19.0707C9.83713 18.1146 7.7416 16.812 5.88468 15.2099C5.88468 15.1525 5.88109 15.0951 5.88109 15.0377ZM5.93491 16.2002C7.84457 17.7542 9.98013 19.0077 12.2679 19.9175C12.9209 22.7162 14.4494 25.2314 16.8319 27.4166C14.0109 27.0647 11.394 25.7618 9.41301 23.7227C7.432 21.6836 6.20518 19.0303 5.93491 16.2002ZM18.3533 27.5099H18.0268C15.49 25.3965 13.8323 22.9638 13.0824 20.2189C15.1462 20.9504 17.319 21.3277 19.5086 21.3348C20.8223 21.3325 22.132 21.1918 23.4161 20.915C22.5872 23.3692 21.0049 25.5795 18.6834 27.5027L18.3533 27.5099ZM19.8782 27.4166C21.9124 25.6234 23.4174 23.3081 24.2306 20.7212C26.4539 20.1224 28.5675 19.1728 30.4918 17.9081C29.9013 20.3852 28.5686 22.6229 26.6719 24.3221C24.7753 26.0213 22.405 27.1009 19.8782 27.4166Z" fill="#414143"/>
<path id="Vector_2" d="M15.6657 34.0151H11.5323C11.1393 34.0151 10.7502 34.0925 10.3871 34.2429C10.024 34.3932 9.69415 34.6137 9.41627 34.8915C9.1384 35.1694 8.91797 35.4993 8.76759 35.8624C8.6172 36.2254 8.5398 36.6146 8.5398 37.0075C8.5398 37.4005 8.6172 37.7896 8.76759 38.1527C8.91797 38.5158 9.1384 38.8456 9.41627 39.1235C9.69415 39.4014 10.024 39.6218 10.3871 39.7722C10.7502 39.9226 11.1393 40 11.5323 40H25.167C25.9606 40 26.7218 39.6847 27.283 39.1235C27.8442 38.5623 28.1595 37.8012 28.1595 37.0075C28.1595 36.2139 27.8442 35.4527 27.283 34.8915C26.7218 34.3303 25.9606 34.0151 25.167 34.0151H21.0443V33.3261C21.0438 32.9475 20.9631 32.5733 20.8075 32.2282C22.4756 31.9862 24.1161 31.5812 25.7052 31.019C25.9106 30.929 26.0748 30.7653 26.1655 30.5603C26.2562 30.3552 26.2668 30.1236 26.1952 29.9111C26.1237 29.6985 25.9751 29.5206 25.7788 29.4122C25.5825 29.3038 25.3527 29.2728 25.1347 29.3254C22.1386 30.366 19.3292 30.7894 16.7816 30.5813C9.07084 29.9534 2.55128 22.6049 2.52975 14.5425C2.51997 13.2707 2.66211 12.0023 2.95315 10.7643C3.42629 8.81489 4.32439 6.99418 5.58321 5.43236C6.84828 3.84542 8.46475 2.57411 10.3051 1.71869C10.4166 1.67403 10.518 1.60742 10.6033 1.52283C10.6886 1.43823 10.756 1.33737 10.8016 1.22623C10.8471 1.11509 10.8699 0.995927 10.8686 0.875816C10.8672 0.755706 10.8417 0.637092 10.7936 0.527012C10.7456 0.416931 10.6759 0.317626 10.5887 0.234988C10.5015 0.15235 10.3987 0.0880618 10.2862 0.0459372C10.1737 0.00381257 10.0539 -0.0152903 9.93386 -0.0102383C9.81385 -0.00518632 9.69607 0.0239177 9.58752 0.0753472C7.48256 1.04394 5.6342 2.49288 4.19104 4.3057C2.76317 6.07764 1.74494 8.1435 1.20934 10.3552C0.884316 11.7282 0.725302 13.1352 0.735709 14.5461C0.760826 23.2472 7.61766 31.1912 15.8738 32.2928C15.7365 32.6212 15.6657 32.9737 15.6657 33.3297V34.0151ZM16.3834 35.4503C16.5737 35.4503 16.7562 35.3747 16.8908 35.2401C17.0254 35.1055 17.101 34.923 17.101 34.7327V33.3261C17.1014 33.1551 17.1369 32.9859 17.2055 32.8291C17.274 32.6723 17.374 32.5313 17.4993 32.4148C17.6822 32.4148 17.8581 32.4148 18.0446 32.4148C18.4035 32.4148 18.7981 32.4148 19.1785 32.3753C19.3127 32.4926 19.4205 32.6371 19.4947 32.7991C19.5689 32.9612 19.6079 33.1371 19.609 33.3154V34.7327C19.609 34.923 19.6847 35.1055 19.8192 35.2401C19.9538 35.3747 20.1363 35.4503 20.3267 35.4503H25.1778C25.5908 35.4503 25.9868 35.6144 26.2789 35.9064C26.5709 36.1984 26.735 36.5945 26.735 37.0075C26.735 37.4205 26.5709 37.8166 26.2789 38.1087C25.9868 38.4007 25.5908 38.5648 25.1778 38.5648H11.543C11.13 38.5648 10.7339 38.4007 10.4419 38.1087C10.1499 37.8166 9.9858 37.4205 9.9858 37.0075C9.9858 36.5945 10.1499 36.1984 10.4419 35.9064C10.7339 35.6144 11.13 35.4503 11.543 35.4503H16.3834Z" fill="#414143"/>
</g>
<defs>
<clipPath id="clip0_46_37">
<rect width="31.5285" height="40" fill="white" transform="translate(0.735718)"/>
</clipPath>
</defs>
</svg>
