<svg width="41" height="34" viewBox="0 0 41 34" fill="none" xmlns="http://www.w3.org/2000/svg">
<path id="Vector" d="M30.6024 0.54863L27.1883 3.96276C27.0176 3.93773 26.8469 3.92066 26.6762 3.91155C25.4539 3.4165 23.2859 3.06826 20.739 5.02797L20.6809 5.07919L19.8547 5.90882C16.7103 3.77499 14.2112 5.08943 13.5113 5.56741L10.3771 2.41958L0.5 12.2967L4.25555 16.0522C4.28286 17.7286 4.88033 19.4493 6.03773 21.1734C6.51671 21.8887 7.0632 22.5564 7.66968 23.1673C8.43786 23.9491 9.22311 24.7207 9.99812 25.4991C9.15483 26.7248 9.51673 27.7422 10.3976 28.6572C11.2784 29.5722 12.1456 29.7156 13.3815 29.3605C13.3861 29.3574 13.3914 29.3558 13.3969 29.3558C13.4024 29.3558 13.4077 29.3574 13.4123 29.3605C14.2965 30.6852 15.1193 31.3305 15.9968 31.409C16.3621 31.7504 16.724 32.1225 17.0927 32.4776C17.6213 32.9948 18.3036 33.3264 19.0369 33.4225C19.7702 33.5185 20.5149 33.3738 21.1589 33.0102C21.7257 32.6688 21.8418 32.4196 22.1149 31.9552C24.3375 33.8228 25.8192 33.8569 27.5775 31.2383C27.582 31.2352 27.5874 31.2336 27.5929 31.2336C27.5983 31.2336 27.6037 31.2352 27.6082 31.2383C28.8441 31.5797 29.6806 31.4841 30.5922 30.535C31.5038 29.5858 31.8759 28.4865 30.838 27.1686C30.838 27.1686 30.5615 26.8272 30.5751 26.8272C30.8985 26.8212 31.2161 26.7396 31.5024 26.589C31.7887 26.4385 32.0358 26.2231 32.2241 25.96C33.0845 24.8504 33.0299 23.6828 32.1081 22.5459C32.5109 22.1396 32.9206 21.7402 33.3201 21.3305C33.9297 20.7221 34.4796 20.0567 34.9623 19.3434C36.1197 17.6056 36.7171 15.8849 36.7445 14.2222L40.5 10.4667L30.6024 0.54863ZM8.26716 21.7333C7.14313 20.619 6.32987 19.2302 5.90799 17.7047C5.82245 17.3685 5.76423 17.026 5.73387 16.6804C5.7058 16.3866 5.69668 16.0912 5.70655 15.7962L1.90662 11.9928L10.0596 3.82961L12.6782 6.44484L12.8489 6.61896V6.64627L14.1156 6.75211L14.1975 6.54726C14.696 6.20585 16.7649 5.0587 19.527 7.16522L23.1835 10.8354C23.3635 11.0173 23.4652 11.2624 23.4669 11.5182C23.4667 11.6454 23.4413 11.7712 23.392 11.8884C23.3428 12.0057 23.2708 12.1119 23.1801 12.2011L22.9377 12.4435C22.7535 12.6265 22.5043 12.7293 22.2446 12.7293C21.9849 12.7293 21.7358 12.6265 21.5516 12.4435L17.8131 8.68793L16.9049 9.32637L17.9292 10.5111L18.3662 10.9515L17.079 12.2386C16.9832 12.3323 16.9148 12.4504 16.881 12.58L16.8161 12.6483C14.2897 15.1782 11.7666 17.6876 9.26067 20.2106C8.81413 20.6328 8.4737 21.1546 8.26716 21.7333ZM20.3907 31.9177C20.2626 32.0596 20.1037 32.1703 19.9261 32.2413C19.7486 32.3123 19.5572 32.3418 19.3665 32.3274C18.769 32.2796 18.3423 31.8255 18.0657 31.5387L17.5365 31.0164C18.0082 30.7522 18.452 30.4411 18.8612 30.0877C19.1514 30.5486 19.247 30.8183 19.8172 31.1427C20.0664 31.2905 20.3338 31.4053 20.6127 31.4841C20.5796 31.6461 20.5028 31.7961 20.3907 31.9177ZM25.7646 31.4124C25.2047 32.0713 24.5628 32.1294 23.7434 31.368C23.6137 31.2519 23.4908 31.1324 23.3645 31.0266C23.5519 30.8989 23.7268 30.7537 23.8868 30.593C24.3546 30.1423 24.8189 29.6814 25.2866 29.2274L25.4368 29.3776C26.2084 30.1628 26.3074 30.7876 25.7646 31.4124ZM29.6704 29.3639C29.1036 30.1355 28.2364 30.1526 27.4614 29.3639C27.0756 28.9781 26.6932 28.5923 26.3074 28.2099C26.9425 27.5886 27.5809 26.9706 28.2125 26.3458L29.288 27.4213C29.9913 28.1382 30.1074 28.7903 29.684 29.3707L29.6704 29.3639ZM31.2648 24.789C31.1983 24.9604 31.0964 25.1158 30.9656 25.245C30.8349 25.3743 30.6783 25.4744 30.5062 25.5389C30.334 25.6034 30.1502 25.6307 29.9667 25.6192C29.7833 25.6076 29.6043 25.5574 29.4416 25.4718C29.3759 25.4341 29.3121 25.393 29.2504 25.3489C29.8616 24.7446 30.4693 24.1301 31.077 23.5223C31.226 23.6935 31.3228 23.9037 31.3561 24.1282C31.3894 24.3527 31.3577 24.582 31.2648 24.789ZM35.273 13.915C35.2934 14.5596 35.2256 15.204 35.0715 15.8303C34.6419 17.3635 33.8179 18.7572 32.6816 19.8726C31.1316 21.5046 29.5065 23.0648 27.9018 24.6524C26.2289 26.3219 24.5662 28.0017 22.8831 29.6575C22.5929 29.9409 22.1798 30.3984 21.5823 30.4462C21.3916 30.4606 21.2002 30.4312 21.0226 30.3601C20.8451 30.2891 20.6862 30.1784 20.558 30.0365C20.4281 29.8583 20.3391 29.6536 20.2972 29.437C20.2553 29.2205 20.2616 28.9974 20.3156 28.7835C20.4878 28.3456 20.7644 27.9565 21.1214 27.65C21.8827 26.8716 22.6577 26.1068 23.4259 25.3352C23.8015 24.9563 24.1736 24.5807 24.5423 24.1983C24.9111 23.816 26.0855 22.9385 25.4403 22.3342C24.8496 21.7811 24.0029 22.8463 23.6478 23.2048C23.2928 23.5633 22.8967 23.9559 22.5178 24.3281C20.78 26.0659 19.0353 27.8173 17.2293 29.4971C16.4099 30.2584 15.768 30.2004 15.2081 29.5415C14.6482 28.8825 14.7779 28.2919 15.5495 27.5203C17.5525 25.5128 19.5566 23.5064 21.5618 21.5012C21.8452 21.2212 22.0876 21.0368 22.1388 20.6067C22.1763 20.2892 22.0603 20.0092 21.7325 19.958C21.1828 19.876 20.9438 20.0877 20.5888 20.4394C18.2262 22.7997 15.8647 25.16 13.5044 27.5203C12.7294 28.2919 11.8622 28.2748 11.2955 27.4998C10.8721 26.9228 10.9882 26.2673 11.6779 25.5742C14.0723 23.173 16.4713 20.774 18.8749 18.3772C19.2641 17.988 19.5577 17.551 19.0934 17.1004C18.6291 16.6497 18.2364 17.0526 17.8882 17.4042C16.0446 19.2547 14.1964 21.1017 12.3436 22.9453C12.1066 23.2019 11.8355 23.4248 11.5379 23.6077C11.3751 23.6927 11.1962 23.7425 11.0129 23.7538C10.8296 23.7651 10.6459 23.7376 10.4739 23.6732C10.3019 23.6088 10.1454 23.5088 10.0146 23.3799C9.88382 23.251 9.78164 23.0959 9.71475 22.9249C9.41772 22.1874 9.79669 21.7163 10.2644 21.2519C13.3371 18.1792 16.4099 15.1372 19.4382 12.0577L20.6946 13.3175C20.8981 13.5211 21.1398 13.6825 21.4057 13.7927C21.6717 13.9029 21.9568 13.9596 22.2446 13.9596C22.5325 13.9596 22.8175 13.9029 23.0835 13.7927C23.3495 13.6825 23.5911 13.5211 23.7946 13.3175L24.0336 13.0785C24.4336 12.6826 24.6649 12.1472 24.6789 11.5846C24.6929 11.0219 24.4886 10.4757 24.1087 10.0604L21.3262 7.25057L20.7765 6.69407L21.5208 5.94638C22.3785 5.23546 23.4351 4.80733 24.5457 4.7207C25.5646 4.67099 26.5769 4.90753 27.4682 5.40353L28.2911 4.58072L30.9063 1.96208L39.0797 10.1082L35.273 13.915Z" fill="#414143"/>
</svg>
