<svg width="33" height="40" viewBox="0 0 33 40" fill="none" xmlns="http://www.w3.org/2000/svg">
<g id="Layer_1" clip-path="url(#clip0_46_22)">
<path id="Vector" d="M1.67671 18.9596C1.49452 18.9492 1.31503 19.0074 1.1736 19.1227C1.03217 19.238 0.939048 19.4021 0.912573 19.5827C0.886099 19.7632 0.928192 19.9471 1.03056 20.0982C1.13293 20.2493 1.28816 20.3565 1.46567 20.3989C3.88509 20.9418 6.35557 21.2248 8.83509 21.243C19.349 21.243 24.7937 15.2242 28.6726 8.83402L31.0109 10.2395C31.1306 10.3118 31.2685 10.3482 31.4082 10.3444C31.548 10.3406 31.6837 10.2967 31.7993 10.2181C31.9148 10.1394 32.0054 10.0292 32.0602 9.90057C32.1149 9.77194 32.1316 9.63029 32.1083 9.49245L30.593 0.607786C30.5741 0.499468 30.5313 0.396711 30.4678 0.306933C30.4043 0.217155 30.3216 0.142595 30.2258 0.0886346C30.1292 0.0367481 30.0222 0.00716233 29.9126 0.00204967C29.8031 -0.003063 29.6938 0.0164273 29.5927 0.0590894L21.6324 3.43569C21.5027 3.49009 21.3916 3.58076 21.3122 3.69681C21.2328 3.81286 21.1887 3.94936 21.185 4.0899C21.1838 4.23042 21.2229 4.36834 21.2977 4.48729C21.3725 4.60625 21.4799 4.70124 21.6071 4.761L24.0087 5.93437C17.5889 20.0359 2.33514 18.9934 1.67671 18.9596ZM25.6126 5.87528C25.6841 5.70333 25.6872 5.51056 25.6213 5.33638C25.5554 5.1622 25.4254 5.01979 25.258 4.93827L23.6837 4.15321L29.3099 1.76005L30.3947 8.18402L28.7866 7.22169C28.7045 7.17176 28.6135 7.13859 28.5185 7.1241C28.4236 7.10961 28.3268 7.11409 28.2336 7.13728C28.0454 7.18773 27.8837 7.30862 27.782 7.47494C23.882 14.11 18.7707 20.0106 8.36659 19.7995C13.976 18.605 21.6662 15.2284 25.6126 5.86683V5.87528Z" fill="#414143"/>
<path id="Vector_2" d="M4.01922 28.279C2.60949 28.279 1.50787 29.6507 1.50787 31.4066V36.8935C1.50787 38.6494 2.60949 40.0211 4.04032 40.0211H7.47179C8.87729 40.0211 9.97891 38.6494 9.97891 36.8935V31.4066C9.97891 29.6507 8.87729 28.279 7.47179 28.279H4.01922ZM8.48899 31.3897V36.8767C8.48899 37.7672 7.99938 38.5649 7.43802 38.5649H4.01922C3.45786 38.5649 2.96825 37.7841 2.96825 36.8767V31.3897C2.96825 30.4991 3.45786 29.7014 4.01922 29.7014H7.45068C8.01204 29.7183 8.48899 30.4991 8.48899 31.3897Z" fill="#414143"/>
<path id="Vector_3" d="M14.398 23.1212C12.9841 23.1212 11.8656 24.4803 11.8656 26.2488V36.8724C11.8656 38.6283 12.9672 40 14.3769 40H17.8084C19.2139 40 20.3155 38.6283 20.3155 36.8724V26.2488C20.3155 24.493 19.2139 23.1212 17.8084 23.1212H14.398ZM18.8805 26.2488V36.8724C18.8805 37.763 18.3867 38.5607 17.8295 38.5607H14.398C13.8367 38.5607 13.3429 37.7799 13.3429 36.8724V26.2488C13.3429 25.3582 13.8367 24.5605 14.398 24.5605H17.8295C18.3824 24.5774 18.8763 25.3582 18.8763 26.2488H18.8805Z" fill="#414143"/>
<path id="Vector_4" d="M29.2213 16.9505H25.794C24.3885 16.9505 23.2616 18.3265 23.2616 20.0781V36.8724C23.2616 38.6283 24.3674 40 25.794 40H29.2255C30.6352 40 31.7369 38.6283 31.7369 36.8724V20.0781C31.7326 18.3265 30.631 16.9505 29.2213 16.9505ZM30.2723 36.8724C30.2723 37.763 29.7826 38.5607 29.2213 38.5607H25.794C25.2327 38.5607 24.7431 37.7799 24.7431 36.8724V20.0781C24.7431 19.1875 25.2327 18.3898 25.794 18.3898H29.2255C29.7869 18.3898 30.2765 19.1706 30.2765 20.0781L30.2723 36.8724Z" fill="#414143"/>
</g>
<defs>
<clipPath id="clip0_46_22">
<rect width="31.2166" height="40" fill="white" transform="translate(0.891663)"/>
</clipPath>
</defs>
</svg>
