<svg width="41" height="28" viewBox="0 0 41 28" fill="none" xmlns="http://www.w3.org/2000/svg">
<g id="Layer_1" clip-path="url(#clip0_46_15)">
<path id="Vector" d="M0.701589 23.9721C0.765053 24.0376 0.841068 24.0895 0.925083 24.1249C1.0091 24.1603 1.09939 24.1783 1.19054 24.178H12.3121C12.1721 24.967 12.0946 25.7658 12.0805 26.567C12.0795 26.6592 12.0967 26.7506 12.1313 26.836C12.1659 26.9215 12.2172 26.9991 12.2821 27.0645C12.3462 27.1303 12.423 27.1824 12.5077 27.2178C12.5925 27.2532 12.6835 27.2711 12.7754 27.2704H28.1003C28.2831 27.2739 28.4599 27.2051 28.5924 27.0791C28.7249 26.953 28.8023 26.7798 28.808 26.597C28.8142 25.7871 28.7539 24.9781 28.6278 24.178H39.8223C40.0018 24.1781 40.1743 24.1083 40.3032 23.9834C40.4321 23.8585 40.5073 23.6883 40.5129 23.5089C40.5129 23.273 40.663 17.6586 37.1416 14.4332C37.0215 14.3241 36.8669 14.2605 36.7047 14.2534C36.5425 14.2463 36.383 14.2963 36.2538 14.3946C36.2109 14.4289 32.1191 17.5042 28.3104 14.3946C28.1854 14.2899 28.0275 14.2325 27.8644 14.2325C27.7013 14.2325 27.5433 14.2899 27.4183 14.3946C26.5201 15.2576 25.7836 16.2744 25.2437 17.397C25.1311 17.3474 25.0074 17.3289 24.8852 17.3432C24.7631 17.3575 24.647 17.4042 24.5489 17.4784C24.3816 17.6071 20.3928 20.5709 16.6012 17.4784C16.5123 17.4068 16.407 17.3583 16.2947 17.3373C16.1824 17.3164 16.0667 17.3236 15.9579 17.3584C15.4575 16.2503 14.7433 15.2518 13.8562 14.4203C13.7326 14.3054 13.5716 14.239 13.4029 14.2335C13.2342 14.228 13.0692 14.2837 12.9383 14.3903C12.8997 14.4246 8.80796 17.4999 4.99496 14.3903C4.86991 14.2856 4.712 14.2282 4.5489 14.2282C4.38579 14.2282 4.22789 14.2856 4.10283 14.3903C3.97416 14.5361 0.585784 17.5471 0.500002 23.4617C0.49642 23.5561 0.51249 23.6502 0.547191 23.7381C0.581893 23.826 0.63447 23.9056 0.701589 23.9721ZM27.9501 15.8529C31.553 18.3792 35.2416 16.6249 36.5712 15.8271C38.63 18.036 39.0288 21.3772 39.1018 22.7883H28.3404C27.9766 21.2056 27.2742 19.7204 26.2817 18.4349C26.7103 17.4982 27.2723 16.6285 27.9501 15.8529ZM16.2238 18.9453C19.8438 21.4716 23.541 19.7173 24.8663 18.9196C26.9251 21.1285 27.3196 24.4697 27.3926 25.8851H13.4959C13.6222 23.3358 14.5804 20.8982 16.2238 18.9453ZM4.64326 15.8529C8.26324 18.3792 11.9604 16.6249 13.2858 15.8271C13.9679 16.5805 14.5059 17.4528 14.8727 18.4006C13.8402 19.7039 13.0776 21.1999 12.6295 22.8012H1.90682C2.0305 20.2473 2.99223 17.8053 4.64326 15.8529Z" fill="#414143"/>
<path id="Vector_2" d="M8.85512 13.837C9.71534 13.8392 10.5674 13.6705 11.3619 13.3406C12.1564 13.0108 12.8774 12.5264 13.483 11.9155C13.6523 11.7436 13.8126 11.5633 13.9634 11.3751C14.1988 12.9234 14.9802 14.3364 16.1664 15.359C17.3525 16.3815 18.8653 16.9462 20.4314 16.9509C22.0248 16.9522 23.564 16.3722 24.7603 15.3196C25.9566 14.267 26.7278 12.8142 26.9293 11.2335C27.538 12.0414 28.3258 12.6971 29.2308 13.1489C30.1358 13.6006 31.1333 13.8362 32.1448 13.837C33.883 13.837 35.55 13.1465 36.779 11.9175C38.0081 10.6884 38.6986 9.02144 38.6986 7.28329C38.6986 5.54514 38.0081 3.87817 36.779 2.64911C35.55 1.42005 33.883 0.729568 32.1448 0.729568C30.5561 0.729673 29.0217 1.30762 27.8277 2.35564C26.6337 3.40366 25.8616 4.85019 25.6555 6.42547C25.0918 5.67588 24.3735 5.05627 23.5494 4.60866C22.7252 4.16106 21.8144 3.89592 20.8788 3.83124C19.9431 3.76656 19.0045 3.90385 18.1266 4.23379C17.2487 4.56373 16.452 5.07861 15.7906 5.74351C15.6242 5.92064 15.4695 6.10832 15.3273 6.30538C15.1394 5.06602 14.5997 3.90664 13.7723 2.96491C12.945 2.02318 11.8648 1.33866 10.6599 0.99263C9.4551 0.646596 8.17628 0.653589 6.97531 1.01278C5.77434 1.37196 4.70167 2.06826 3.88468 3.01898C3.06769 3.9697 2.54069 5.13491 2.36627 6.37625C2.19184 7.61759 2.37732 8.88291 2.90067 10.022C3.42402 11.161 4.26326 12.126 5.31874 12.8022C6.37421 13.4785 7.60159 13.8376 8.85512 13.837ZM28.4906 3.62899C28.9693 3.15023 29.5377 2.77045 30.1632 2.51135C30.7888 2.25224 31.4592 2.11888 32.1363 2.11888C32.8133 2.11888 33.4838 2.25224 34.1093 2.51135C34.7349 2.77045 35.3032 3.15023 35.782 3.62899C36.2608 4.10775 36.6405 4.67613 36.8996 5.30166C37.1587 5.9272 37.2921 6.59764 37.2921 7.27471C37.2921 7.95179 37.1587 8.62223 36.8996 9.24776C36.6405 9.8733 36.2608 10.4417 35.782 10.9204C35.3032 11.4021 34.7338 11.7842 34.1066 12.0448C33.4794 12.3054 32.8069 12.4393 32.1277 12.4388C31.1051 12.443 30.1044 12.1425 29.2532 11.5757C28.4021 11.0088 27.7391 10.2013 27.3489 9.25602C26.9586 8.31078 26.8588 7.27072 27.0622 6.26852C27.2655 5.26631 27.7628 4.34739 28.4906 3.62899ZM16.7985 6.73429C17.276 6.25198 17.8445 5.86938 18.4711 5.60873C19.0977 5.34807 19.7699 5.21456 20.4485 5.21595C21.4715 5.21084 22.4728 5.51069 23.3246 6.07723C24.1764 6.64377 24.84 7.45129 25.2308 8.3967C25.6216 9.34212 25.7218 10.3825 25.5186 11.3851C25.3154 12.3878 24.818 13.3071 24.0899 14.0257C23.6122 14.5073 23.0434 14.8891 22.4169 15.149C21.7903 15.4089 21.1183 15.5417 20.4399 15.5398C19.4178 15.544 18.4176 15.2438 17.5668 14.6775C16.7159 14.1112 16.0529 13.3043 15.6623 12.3598C15.2717 11.4153 15.1712 10.3759 15.3736 9.374C15.5759 8.37212 16.072 7.45318 16.7985 6.73429ZM5.21798 3.62899C6.18488 2.66208 7.49629 2.11888 8.8637 2.11888C10.2311 2.11888 11.5425 2.66208 12.5094 3.62899C13.4763 4.5959 14.0195 5.9073 14.0195 7.27471C14.0195 8.64212 13.4763 9.95353 12.5094 10.9204C12.0311 11.4016 11.4624 11.7834 10.836 12.044C10.2096 12.3046 9.53785 12.4387 8.85941 12.4388C7.83643 12.4439 6.83513 12.144 5.98333 11.5775C5.13154 11.011 4.46789 10.2034 4.07712 9.25802C3.68634 8.3126 3.58616 7.27218 3.78936 6.26957C3.99256 5.26696 4.48993 4.34765 5.21798 3.62899Z" fill="#414143"/>
</g>
<defs>
<clipPath id="clip0_46_15">
<rect width="40" height="26.5409" fill="white" transform="translate(0.5 0.729568)"/>
</clipPath>
</defs>
</svg>
